HIERARCHY
ROOT hip
{
	OFFSET 0.000000 0.000000 0.000000 
	CHANNELS 6 Xposition Yposition Zposition Xrotation Zrotation Yrotation
	JOINT abdomen
	{
		OFFSET 0.000000 3.402643 0.000000 
		CHANNELS 3 Xrotation Zrotation Yrotation
		JOINT chest
		{
			OFFSET 0.000000 8.438565 -0.680529 
			CHANNELS 3 Xrotation Zrotation Yrotation
			JOINT neck
			{
				OFFSET 0.000000 10.207942 -0.272212 
				CHANNELS 3 Xrotation Zrotation Yrotation
				JOINT head
				{
					OFFSET 0.000000 3.130431 0.000000 
					CHANNELS 3 Xrotation Zrotation Yrotation
					End Site
					{
						OFFSET 0.000000 3.130435 0.000000 
					}
				}
			}
			JOINT lCollar
			{
				OFFSET 3.470700 6.669187 -0.816635 
				CHANNELS 3 Yrotation Zrotation Xrotation
				JOINT lShldr
				{
					OFFSET 3.198488 0.000000 0.000000 
					CHANNELS 3 Zrotation Yrotation Xrotation
					JOINT lForeArm
					{
						OFFSET 10.139888 0.000000 0.000000 
						CHANNELS 3 Yrotation Zrotation Xrotation
						JOINT lHand
						{
							OFFSET 8.370511 0.000000 0.000000 
							CHANNELS 3 Zrotation Yrotation Xrotation
							End Site
							{
								OFFSET 4.083176 0.000000 0.000000 
							}
						}
					}
				}
			}
			JOINT rCollar
			{
				OFFSET -3.470700 6.669187 -0.816635 
				CHANNELS 3 Yrotation Zrotation Xrotation
				JOINT rShldr
				{
					OFFSET -3.198488 0.000000 0.000000 
					CHANNELS 3 Zrotation Yrotation Xrotation
					JOINT rForeArm
					{
						OFFSET -10.139888 0.000000 0.000000 
						CHANNELS 3 Yrotation Zrotation Xrotation
						JOINT rHand
						{
							OFFSET -8.370511 0.000000 0.000000 
							CHANNELS 3 Zrotation Yrotation Xrotation
							End Site
							{
								OFFSET -4.083176 0.000000 0.000000 
							}
						}
					}
				}
			}
		}
	}
	JOINT lThigh
	{
		OFFSET 5.308129 -1.633274 1.361059 
		CHANNELS 3 Xrotation Zrotation Yrotation
		JOINT lShin
		{
			OFFSET -2.041588 -20.007561 0.000000 
			CHANNELS 3 Xrotation Zrotation Yrotation
			JOINT lFoot
			{
				OFFSET 0.000000 -19.190928 -1.224953 
				CHANNELS 3 Xrotation Yrotation Zrotation
				End Site
				{
					OFFSET 0.000000 -2.449906 4.627600 
				}
			}
		}
	}
	JOINT rThigh
	{
		OFFSET -5.308129 -1.633274 1.361059 
		CHANNELS 3 Xrotation Zrotation Yrotation
		JOINT rShin
		{
			OFFSET 2.041588 -20.007561 0.000000 
			CHANNELS 3 Xrotation Zrotation Yrotation
			JOINT rFoot
			{
				OFFSET 0.000000 -19.190928 -1.224953 
				CHANNELS 3 Xrotation Yrotation Zrotation
				End Site
				{
					OFFSET 0.000000 -2.449906 4.627600 
				}
			}
		}
	}
}
MOTION
Frames: 13
Frame Time: 0.033333
27.254150 31.165049 -63.330494 22.324219 -22.685547 35.611469 41.035156 -6.103516 -2.656250 -2.099609 3.369141 1.777918 -15.517577 0.019531 18.037113 -28.183594 -10.468750 24.472656 1.582031 2.099600 -0.068717 -43.925781 -30.771484 -46.653240 -109.443359 4.501954 63.846886 15.849609 33.046871 8.935546 3.291015 -7.753906 -0.078125 57.353516 15.468749 -45.966793 100.957031 -3.251953 38.740791 -39.501953 -19.892578 15.445895 -107.953392 35.613205 -7.375690 93.171303 2.264824 -3.905121 2.257117 -18.630350 -11.304452 -89.244507 -45.505665 0.112138 92.786972 -3.544582 3.486582 -1.979511 -7.505862 12.157732 
27.331604 30.917515 -63.273563 21.796875 -22.158203 35.787334 41.386719 -5.976562 -2.441406 -1.923828 3.193359 1.777888 -13.789063 -0.742188 17.597658 -29.052736 -9.941407 23.779297 1.582031 2.099600 -0.068717 -44.335938 -30.058594 -46.635750 -109.257813 4.345703 63.319569 16.826172 31.103518 8.862470 3.291015 -7.929687 -0.068359 57.500004 15.263673 -45.612663 100.937500 -3.222656 39.082039 -39.296875 -18.808594 14.492187 -107.732666 35.497471 -7.447076 93.873734 2.430642 -3.769647 1.739339 -18.588167 -11.597812 -89.380608 -45.485886 1.391042 93.333412 -3.007497 3.525673 -2.285756 -7.315079 11.665480 
27.406324 30.756323 -63.228497 21.611326 -21.982420 36.035160 41.728516 -5.800781 -2.392579 -1.748047 3.369141 1.953125 -12.783204 -0.712891 16.357422 -28.535156 -10.468750 22.371271 1.230469 1.923828 -0.048828 -45.146481 -29.580078 -46.616150 -108.925781 4.462891 63.173069 17.187498 28.779295 8.417969 3.115234 -8.281249 -0.068359 57.607422 15.263673 -45.185551 100.898438 -3.349610 39.628906 -38.750000 -18.164063 13.678597 -107.765068 35.436504 -7.863351 94.569641 2.430686 -3.975643 1.987638 -18.168680 -11.540339 -89.411446 -45.506321 1.714253 94.193176 -3.554327 3.514896 -2.300933 -7.399337 12.022835 
27.470730 30.673300 -63.197182 21.435545 -21.806641 36.025394 41.718750 -5.507813 -2.139609 -1.572266 3.720703 2.128906 -11.816405 -1.152344 14.286913 -28.876953 -8.886719 19.560549 1.230469 1.748047 -0.049126 -46.025394 -29.355471 -46.533203 -108.681641 4.414062 63.046875 17.324221 26.542969 7.865694 3.115234 -8.457031 -0.058594 57.353516 15.498048 -44.716793 100.849609 -3.291016 40.312500 -38.281246 -17.412111 12.995126 -107.553581 35.135082 -8.055251 94.752144 2.430439 -3.800100 1.800699 -17.786457 -11.631939 -89.523232 -45.298294 2.502849 94.036842 -3.007576 3.532636 -2.152191 -7.700786 11.705635 
27.528849 30.646017 -63.178684 21.435547 -21.630859 36.035160 41.718750 -5.341797 -2.090753 -1.210938 4.423828 2.138672 -11.025392 -0.947266 11.777345 -29.042969 -7.480468 16.219433 1.230469 1.396484 -0.039301 -47.431641 -28.974609 -45.830078 -108.505859 4.384766 62.958984 17.402344 25.332029 7.617188 2.939453 -8.808594 -0.068359 56.757809 15.898437 -44.511719 100.664063 -3.349610 41.006432 -37.744141 -16.572266 12.177733 -107.333931 34.762341 -8.180149 95.087242 2.610380 -3.804306 1.965635 -17.463964 -11.482401 -89.573563 -45.318733 3.005769 94.036842 -3.007534 3.532678 -2.174440 -7.408178 11.642562 
27.583527 30.648628 -63.171207 21.259766 -21.445313 36.207367 41.542969 -5.292969 -2.256760 -0.859375 5.117187 2.138672 -10.234375 -0.625000 8.730469 -29.394531 -5.361329 12.353515 1.582031 1.044922 -0.039063 -48.671875 -28.701172 -45.205078 -108.496094 4.404297 62.753155 17.353514 24.980467 7.539064 2.939453 -8.984374 -0.058594 56.152340 16.455076 -44.345707 100.625000 -3.476563 41.543560 -37.519535 -15.166015 10.986327 -107.103516 34.578098 -8.030151 95.097000 2.606381 -3.808896 1.981452 -17.285965 -11.395753 -89.605995 -45.339989 3.339328 94.037201 -3.007558 3.523118 -2.023566 -7.789091 11.674046 
27.634407 30.664047 -63.174171 21.259766 -21.269529 36.207394 41.367188 -5.078125 -2.383677 -0.332031 6.171875 1.972656 -9.599608 -0.019531 5.283200 -29.560547 -3.251953 7.792415 1.933594 0.693359 -0.029297 -50.175781 -28.408203 -44.316410 -108.789063 4.394531 63.475815 17.109377 25.058594 7.396714 3.261719 -9.345702 -0.156250 55.468750 16.767576 -44.267574 100.839844 -3.359375 42.265625 -37.744144 -12.968750 9.697266 -106.642448 34.245392 -7.650474 95.103134 2.430492 -3.821802 2.003738 -16.905230 -11.456841 -89.439819 -45.173923 3.756547 94.036842 -3.007532 3.532682 -1.911238 -7.622023 11.564971 
27.687428 30.686703 -63.182957 21.259766 -21.269529 36.383175 41.181641 -5.039062 -2.549686 0.029297 7.226563 1.972656 -9.296875 0.566406 1.660156 -29.375002 -0.966797 3.037110 2.285156 0.341797 -0.019531 -51.660156 -27.470701 -43.476559 -109.101563 4.580078 65.458206 16.660154 24.970701 7.177734 3.623047 -9.521484 -0.086275 54.785156 17.011717 -44.384762 101.064453 -3.427734 42.832031 -38.124996 -11.250000 8.357469 -106.643257 34.069931 -7.777831 95.116119 2.245018 -3.663723 2.607355 -16.783747 -11.520311 -89.462532 -45.180275 4.084411 93.851669 -3.000353 3.526045 -1.597492 -7.489295 11.815686 
27.750763 30.711611 -63.195412 21.259766 -21.269529 36.383175 41.005859 -4.990234 -2.725459 0.380859 8.457032 1.983858 -8.798827 0.957031 -2.109212 -29.189451 1.669922 -1.884481 2.451172 -0.185547 -0.175750 -53.134766 -26.289064 -42.675785 -109.492188 4.580078 67.519531 16.386719 24.863283 7.031250 4.121094 -9.882813 -0.146484 54.062500 16.875000 -44.411228 101.289063 -3.505860 43.232422 -38.691406 -9.677734 7.373046 -106.612198 34.049789 -7.437530 95.285286 2.430068 -3.656102 2.350611 -16.307957 -11.374862 -89.216217 -45.145145 3.803050 93.841454 -3.554225 3.510189 -1.396342 -7.473574 12.027861 
27.828571 30.734381 -63.214977 21.259766 -21.445313 36.207367 40.654297 -4.775391 -2.841797 0.390625 9.863271 2.159878 -8.261718 1.210938 -5.507606 -29.169922 4.306641 -6.786377 2.626953 -0.888672 -0.136567 -54.824219 -24.755859 -41.527527 -109.833984 4.599609 67.938667 16.865232 25.791014 7.402343 4.833985 -10.234376 0.001735 53.115234 16.855469 -44.381935 101.386719 -3.535156 43.594353 -39.355473 -8.300781 6.396484 -106.387482 33.688374 -7.413188 95.461319 2.430120 -3.652690 2.437890 -15.850994 -11.585750 -88.808571 -45.112137 4.274969 93.499428 -3.010057 3.526839 -1.278518 -7.609293 11.588457 
27.918951 30.752886 -63.245811 21.259766 -21.445313 36.031590 40.478516 -4.775391 -2.841797 0.214844 11.269531 2.158203 -7.705078 1.171875 -8.525191 -28.984375 6.933594 -11.005858 2.626953 -1.591797 -0.107422 -56.728519 -23.437500 -39.863277 -110.087891 4.541016 66.044144 18.183594 27.324219 8.686123 5.166016 -10.429687 -0.086123 52.197266 16.699219 -44.287106 101.357422 -3.496094 43.945313 -39.912113 -6.962891 5.488281 -106.389244 33.513218 -7.541228 95.637352 2.430167 -3.649306 2.145444 -15.171067 -11.525569 -88.808571 -45.112141 4.274969 93.157288 -3.020508 3.518110 -1.160718 -7.308299 11.708703 
28.014904 30.769728 -63.290173 21.435547 -21.455076 35.849613 40.292969 -4.560547 -2.969527 0.224609 12.675774 2.170113 -7.666016 1.201172 -11.005859 -28.974609 9.042968 -14.510183 2.802734 -2.119140 -0.077764 -58.916016 -22.089842 -37.900391 -110.097656 4.462891 62.617188 20.507813 28.632814 10.068360 5.517578 -10.781250 0.009766 51.132813 16.904297 -44.062500 101.201172 -3.583984 44.287106 -40.732422 -5.859375 4.706035 -106.181686 33.327042 -7.577069 95.822060 2.430790 -3.674553 2.058929 -14.439075 -11.512970 -88.795891 -45.281693 4.275379 93.151512 -3.007690 3.684421 -0.994967 -7.392350 11.669993 
28.110741 30.794516 -63.348057 21.435547 -21.279295 35.673828 40.292969 -4.560547 -2.969527 0.224609 13.730469 2.343750 -7.802735 0.947266 -12.919923 -28.974609 10.800781 -17.146608 2.802734 -2.470703 -0.058173 -60.957035 -21.181639 -36.142578 -110.117188 4.189453 59.413349 22.490234 28.544922 11.113280 5.664063 -10.966796 -0.105564 50.175781 17.138672 -43.874077 101.318359 -3.623047 44.482418 -41.474609 -5.087891 4.237415 -106.162651 33.209946 -7.427080 96.007133 2.430616 -3.690866 2.202970 -13.755841 -11.778676 -88.560760 -45.173855 4.226357 92.630051 -3.192989 3.331567 -0.862711 -6.955954 12.040669 
